<svg version="1.1" id="Layer_1" xmlns="http://www.w3.org/2000/svg" xmlns:xlink="http://www.w3.org/1999/xlink" x="0px" y="0px"
	 width="100%" viewBox="0 0 204 192" enable-background="new 0 0 204 192" xml:space="preserve">
<path fill="#FFFEFE" opacity="1.000000" stroke="none" 
	d="
M146.000000,193.000000 
	C97.333336,193.000000 49.166672,193.000000 1.000006,193.000000 
	C1.000004,129.000000 1.000004,65.000015 1.000002,1.000015 
	C68.999992,1.000010 136.999985,1.000010 204.999969,1.000005 
	C204.999985,64.999985 204.999985,128.999969 205.000000,192.999969 
	C185.500000,193.000000 166.000000,193.000000 146.000000,193.000000 
M91.251503,143.117920 
	C71.024521,141.263718 52.151241,134.779831 33.736397,126.063393 
	C35.078499,128.495468 36.787430,130.179291 38.676903,131.627594 
	C61.714897,149.286362 87.753685,156.302475 116.473183,152.838623 
	C131.642670,151.009048 146.048233,146.488037 158.809036,137.713257 
	C159.862213,136.989059 160.362442,135.460754 161.119598,134.306076 
	C159.650131,134.106201 158.148682,133.623734 156.720169,133.785538 
	C155.276917,133.948975 153.939056,134.878052 152.498123,135.252991 
	C140.993134,138.246643 129.474640,141.188354 117.500229,144.039169 
	C117.500229,144.039169 117.035225,144.121857 116.388481,143.922272 
	C115.945480,143.896637 115.502487,143.871002 114.506363,143.751480 
	C114.328804,143.810181 114.151253,143.868896 113.049553,143.787750 
	C107.381950,143.825638 101.714355,143.863525 95.399666,143.698959 
	C94.285156,143.600769 93.170647,143.502579 91.251503,143.117920 
M136.141403,58.213890 
	C134.250977,46.156349 125.805031,40.877678 114.007889,39.106361 
	C108.533607,38.284412 102.644875,40.396603 97.113121,39.744419 
	C87.889626,38.656979 74.213028,49.037922 72.024040,58.218369 
	C70.708595,63.735241 71.207550,64.602737 76.610161,65.101860 
	C79.256226,65.346313 81.938843,65.493660 84.520752,66.065193 
	C88.562660,66.959900 90.632065,65.411186 92.171829,61.653366 
	C94.549736,55.850044 100.479958,53.404232 107.126038,54.876434 
	C112.213318,56.003342 114.566055,59.428970 114.818115,66.152977 
	C114.879715,67.796112 114.827278,69.443520 114.827278,71.479362 
	C111.469025,71.838470 108.345016,72.074249 105.251595,72.521568 
	C95.633568,73.912369 86.090233,74.807625 77.935402,81.535545 
	C69.520386,88.478134 67.814804,97.218071 69.030647,106.935867 
	C70.157036,115.938728 75.265625,122.395355 84.363579,124.596527 
	C94.517937,127.053268 104.196960,125.808578 112.736153,119.207321 
	C114.518677,117.829338 116.252037,116.387756 117.992371,114.988113 
	C120.219376,117.672676 122.169991,120.066071 124.166588,122.420479 
	C126.804741,125.531433 129.456299,125.911118 132.577805,122.841881 
	C135.248932,120.215500 138.212845,117.868088 141.177307,115.564629 
	C143.659775,113.635689 143.744415,111.853493 142.029282,109.219063 
	C139.922501,105.983078 138.381226,102.378929 136.629211,98.004150 
	C136.416321,85.004021 136.203445,72.003899 136.141403,58.213890 
M164.404892,122.956161 
	C158.322128,122.887917 152.557556,123.731682 148.058685,128.375763 
	C152.288391,128.704742 156.356354,128.173813 160.424347,128.173569 
	C166.960266,128.173172 168.048935,129.777802 166.332581,136.096283 
	C165.465393,139.288651 164.547348,142.467224 163.652298,145.652023 
	C164.109482,145.907471 164.566650,146.162918 165.023819,146.418365 
	C166.170715,145.432327 167.740280,144.664307 168.382980,143.418213 
	C170.117355,140.055557 171.912216,136.608368 172.861221,132.979782 
	C175.028000,124.694847 173.994171,123.544884 164.404892,122.956161 
z"/>
<path fill="#262221" opacity="1.000000" stroke="none" 
	d="
M136.595490,98.933929 
	C138.381226,102.378929 139.922501,105.983078 142.029282,109.219063 
	C143.744415,111.853493 143.659775,113.635689 141.177307,115.564629 
	C138.212845,117.868088 135.248932,120.215500 132.577805,122.841881 
	C129.456299,125.911118 126.804741,125.531433 124.166588,122.420479 
	C122.169991,120.066071 120.219376,117.672676 117.992371,114.988113 
	C116.252037,116.387756 114.518677,117.829338 112.736153,119.207321 
	C104.196960,125.808578 94.517937,127.053268 84.363579,124.596527 
	C75.265625,122.395355 70.157036,115.938728 69.030647,106.935867 
	C67.814804,97.218071 69.520386,88.478134 77.935402,81.535545 
	C86.090233,74.807625 95.633568,73.912369 105.251595,72.521568 
	C108.345016,72.074249 111.469025,71.838470 114.827278,71.479362 
	C114.827278,69.443520 114.879715,67.796112 114.818115,66.152977 
	C114.566055,59.428970 112.213318,56.003342 107.126038,54.876434 
	C100.479958,53.404232 94.549736,55.850044 92.171829,61.653366 
	C90.632065,65.411186 88.562660,66.959900 84.520752,66.065193 
	C81.938843,65.493660 79.256226,65.346313 76.610161,65.101860 
	C71.207550,64.602737 70.708595,63.735241 72.024040,58.218369 
	C74.213028,49.037922 87.889626,38.656979 97.113121,39.744419 
	C102.644875,40.396603 108.533607,38.284412 114.007889,39.106361 
	C125.805031,40.877678 134.250977,46.156349 135.758591,58.893448 
	C135.258636,71.948051 135.114014,84.323044 135.092468,96.698250 
	C135.091171,97.442604 136.071777,98.188667 136.595490,98.933929 
M102.581535,85.125839 
	C94.507965,86.558647 90.422577,93.167458 91.693108,101.800125 
	C92.267479,105.702698 94.057434,109.473862 98.081741,109.694336 
	C101.644890,109.889557 106.184631,109.049538 108.781563,106.867462 
	C115.900215,100.886017 114.892876,92.278404 114.781532,83.400887 
	C110.567238,83.945465 106.981148,84.408867 102.581535,85.125839 
z"/>
<path fill="#F8A722" opacity="1.000000" stroke="none" 
	d="
M115.059486,143.845367 
	C115.502487,143.871002 115.945480,143.896637 116.789780,144.176117 
	C117.447479,144.335281 117.703880,144.240616 117.960281,144.145966 
	C129.474640,141.188354 140.993134,138.246643 152.498123,135.252991 
	C153.939056,134.878052 155.276917,133.948975 156.720169,133.785538 
	C158.148682,133.623734 159.650131,134.106201 161.119598,134.306076 
	C160.362442,135.460754 159.862213,136.989059 158.809036,137.713257 
	C146.048233,146.488037 131.642670,151.009048 116.473183,152.838623 
	C87.753685,156.302475 61.714897,149.286362 38.676903,131.627594 
	C36.787430,130.179291 35.078499,128.495468 33.736397,126.063393 
	C52.151241,134.779831 71.024521,141.263718 91.740860,143.572922 
	C93.502403,143.985764 94.774574,143.943604 96.046753,143.901428 
	C101.714355,143.863525 107.381950,143.825638 113.614578,144.041138 
	C114.472893,144.144806 114.766190,143.995087 115.059486,143.845367 
z"/>
<path fill="#F8A828" opacity="1.000000" stroke="none" 
	d="
M164.863785,122.960587 
	C173.994171,123.544884 175.028000,124.694847 172.861221,132.979782 
	C171.912216,136.608368 170.117355,140.055557 168.382980,143.418213 
	C167.740280,144.664307 166.170715,145.432327 165.023819,146.418365 
	C164.566650,146.162918 164.109482,145.907471 163.652298,145.652023 
	C164.547348,142.467224 165.465393,139.288651 166.332581,136.096283 
	C168.048935,129.777802 166.960266,128.173172 160.424347,128.173569 
	C156.356354,128.173813 152.288391,128.704742 148.058685,128.375763 
	C152.557556,123.731682 158.322128,122.887917 164.863785,122.960587 
z"/>
<path fill="#000000" opacity="1.000000" stroke="none" 
	d="
M136.612350,98.469040 
	C136.071777,98.188667 135.091171,97.442604 135.092468,96.698250 
	C135.114014,84.323044 135.258636,71.948051 135.683167,59.288391 
	C136.203445,72.003899 136.416321,85.004021 136.612350,98.469040 
z"/>
<path fill="#F79D03" opacity="1.000000" stroke="none" 
	d="
M95.723206,143.800201 
	C94.774574,143.943604 93.502403,143.985764 92.143181,143.716156 
	C93.170647,143.502579 94.285156,143.600769 95.723206,143.800201 
z"/>
<path fill="#F79D03" opacity="1.000000" stroke="none" 
	d="
M114.782928,143.798431 
	C114.766190,143.995087 114.472893,144.144806 114.076645,144.111069 
	C114.151253,143.868896 114.328804,143.810181 114.782928,143.798431 
z"/>
<path fill="#F79D03" opacity="1.000000" stroke="none" 
	d="
M117.730255,144.092560 
	C117.703880,144.240616 117.447479,144.335281 117.113152,144.275909 
	C117.035225,144.121857 117.500229,144.039169 117.730255,144.092560 
z"/>
<path fill="#F8F8F8" opacity="1.000000" stroke="none" 
	d="
M102.988297,84.999054 
	C106.981148,84.408867 110.567238,83.945465 114.781532,83.400887 
	C114.892876,92.278404 115.900215,100.886017 108.781563,106.867462 
	C106.184631,109.049538 101.644890,109.889557 98.081741,109.694336 
	C94.057434,109.473862 92.267479,105.702698 91.693108,101.800125 
	C90.422577,93.167458 94.507965,86.558647 102.988297,84.999054 
z"/>
</svg>